<svg width="500" height="500" viewBox="0 0 500 500" fill="none" xmlns="http://www.w3.org/2000/svg">
<path d="M191.674 341.65H158.346V308.322C158.346 303.72 154.615 299.99 150.013 299.99H116.685C112.084 299.99 108.353 303.72 108.353 308.322V341.65H75.0244C70.423 341.65 66.6923 345.381 66.6923 349.982V383.311C66.6923 387.912 70.423 391.643 75.0244 391.643H108.353V424.971C108.353 429.573 112.084 433.303 116.685 433.303H150.013C154.615 433.303 158.346 429.573 158.346 424.971V391.643H191.674C196.275 391.643 200.006 387.912 200.006 383.311V349.982C200.006 345.381 196.275 341.65 191.674 341.65ZM183.342 374.979H150.013C145.412 374.979 141.681 378.709 141.681 383.311V416.639H125.017V383.311C125.017 378.709 121.286 374.979 116.685 374.979H83.3565V358.314H116.685C121.286 358.314 125.017 354.584 125.017 349.982V316.654H141.681V349.982C141.681 354.584 145.412 358.314 150.013 358.314H183.342V374.979Z" fill="#5200FF"/>
<path d="M499.13 351.424C492.739 294.007 438.813 240.29 381.347 234.166C376.466 233.627 371.56 233.349 366.649 233.333H274.996V200.004H258.331V183.34C258.331 164.933 243.41 150.011 225.003 150.011H183.342C174.139 150.011 166.678 142.551 166.678 133.347C166.678 124.143 174.139 116.683 183.342 116.683H316.656C335.063 116.683 349.985 101.761 349.985 83.3545C349.985 64.9478 335.063 50.026 316.656 50.026H274.996C265.792 50.026 258.331 42.5657 258.331 33.3618V0.0333252H241.667V33.3618C241.667 51.7685 256.589 66.6903 274.996 66.6903H316.656C325.86 66.6903 333.321 74.1506 333.321 83.3545C333.321 92.5584 325.86 100.019 316.656 100.019H183.342C164.936 100.019 150.014 114.941 150.014 133.347C150.014 151.754 164.936 166.676 183.342 166.676H225.003C234.207 166.676 241.667 174.136 241.667 183.34V200.004H225.003V233.333H133.35C128.434 233.344 123.521 233.622 118.635 234.166C61.1436 240.332 7.25148 294.049 0.877407 351.465C-7.49325 424.615 45.0199 490.701 118.171 499.072C147.958 502.481 178.024 495.748 203.514 479.964C214.489 472.78 227.033 468.347 240.084 467.041C246.531 466.532 253.006 466.509 259.456 466.975C272.714 468.257 285.46 472.74 296.601 480.039C359.232 518.746 441.384 499.352 480.091 436.72C495.841 411.235 502.548 381.187 499.13 351.424ZM241.667 216.668H258.331V233.333H241.667V216.668ZM453.595 444.418C415.924 486.554 353.455 495.596 305.383 465.874C291.959 457.132 276.602 451.804 260.648 450.351C257.132 450.096 253.582 449.968 249.999 449.968C246.208 449.968 242.5 450.126 238.768 450.418C223.056 451.923 207.942 457.199 194.707 465.799C139.922 499.695 68.0311 482.762 34.134 427.976C20.335 405.673 14.4546 379.371 17.4417 353.315C22.9242 303.972 71.0338 256.046 120.427 250.738C124.718 250.258 129.032 250.011 133.35 249.997H366.649C370.966 250 375.28 250.23 379.572 250.688C428.957 255.996 477.058 303.922 482.557 353.265C486.486 386.403 475.93 419.625 453.595 444.418Z" fill="#5200FF"/>
<path d="M366.649 283.325C348.242 283.325 333.32 298.247 333.32 316.654C333.32 335.06 348.242 349.982 366.649 349.982C385.055 349.982 399.977 335.06 399.977 316.654C399.977 298.247 385.055 283.325 366.649 283.325ZM366.649 333.318C357.445 333.318 349.984 325.858 349.984 316.654C349.984 307.45 357.445 299.99 366.649 299.99C375.852 299.99 383.313 307.45 383.313 316.654C383.313 325.858 375.851 333.318 366.649 333.318Z" fill="#5200FF"/>
<path d="M366.649 383.311C348.242 383.311 333.32 398.233 333.32 416.639C333.32 435.046 348.242 449.968 366.649 449.968C385.055 449.968 399.977 435.046 399.977 416.639C399.977 398.233 385.055 383.311 366.649 383.311ZM366.649 433.303C357.445 433.303 349.984 425.843 349.984 416.639C349.984 407.435 357.445 399.975 366.649 399.975C375.852 399.975 383.313 407.435 383.313 416.639C383.313 425.843 375.851 433.303 366.649 433.303Z" fill="#5200FF"/>
<path d="M308.324 333.318C289.917 333.318 274.995 348.24 274.995 366.647C274.995 385.053 289.917 399.975 308.324 399.975C326.73 399.975 341.652 385.053 341.652 366.647C341.652 348.24 326.73 333.318 308.324 333.318ZM308.324 383.311C299.12 383.311 291.659 375.85 291.659 366.647C291.659 357.443 299.12 349.982 308.324 349.982C317.528 349.982 324.988 357.443 324.988 366.647C324.988 375.85 317.527 383.311 308.324 383.311Z" fill="#5200FF"/>
<path d="M424.973 333.318C406.567 333.318 391.645 348.24 391.645 366.647C391.645 385.053 406.567 399.975 424.973 399.975C443.38 399.975 458.302 385.053 458.302 366.647C458.302 348.24 443.38 333.318 424.973 333.318ZM424.973 383.311C415.77 383.311 408.309 375.85 408.309 366.647C408.309 357.443 415.77 349.982 424.973 349.982C434.177 349.982 441.638 357.443 441.638 366.647C441.638 375.85 434.176 383.311 424.973 383.311Z" fill="#5200FF"/>
</svg>
