<svg width="75" height="50" viewBox="0 0 75 50" fill="none" xmlns="http://www.w3.org/2000/svg">
<path d="M18.2746 49.85C8.23944 49.85 0 41.3649 0 31.3949C0 29.5918 0.316901 27.7887 0.739437 26.0917C2.85211 18.6672 9.50704 13.364 17.4296 12.9398C21.4437 5.09106 29.5775 0 38.2394 0C49.331 0 58.9437 7.95479 61.2676 18.7733C68.9789 19.8339 75 26.1978 75 34.4707C75 42.9559 68.2394 49.85 59.6831 49.85H18.2746Z" fill="#F5F6F6"/>
<path fill-rule="evenodd" clip-rule="evenodd" d="M18.2747 48.259H59.6831C67.2888 48.259 73.4155 42.1073 73.4155 34.4707C73.4155 27.2584 68.1338 21.3188 60.9507 20.3643H59.8944L59.5775 19.0915C57.4648 9.01543 48.5916 1.59096 38.2395 1.59096C30.1057 1.59096 22.6056 6.36383 18.8028 13.7883L18.3803 14.5307H17.324C10.5634 14.8489 4.43663 19.8339 2.53522 26.516C1.90142 28.1069 1.69015 29.6979 1.69015 31.3949C1.69015 40.6224 9.08451 48.3651 18.3803 48.3651L18.2747 48.259Z" stroke="#BBC0C4" stroke-width="3"/>
</svg>
